<?xml version="1.0" encoding="UTF-8"?>
<svg version="1.1" xmlns="http://www.w3.org/2000/svg" width="512" height="512">
<path d="M0 0 C0.99868909 -0.00297112 1.99737819 -0.00594224 3.02633059 -0.0090034 C6.35908455 -0.01764635 9.69180239 -0.01919493 13.02456665 -0.02069092 C15.42015662 -0.02532233 17.81574585 -0.03034742 20.21133423 -0.03573608 C26.71186048 -0.04883371 33.21237985 -0.05533771 39.71291685 -0.05974674 C43.78023756 -0.06251761 47.84755591 -0.06675656 51.91487503 -0.07125092 C63.19913521 -0.08343966 74.48339352 -0.09373856 85.76766014 -0.09712601 C86.48888342 -0.09734557 87.2101067 -0.09756514 87.95318524 -0.09779136 C88.67603937 -0.09800964 89.39889351 -0.09822791 90.14365232 -0.09845281 C91.60818887 -0.09889626 93.07272542 -0.09934282 94.53726196 -0.09979248 C95.2637076 -0.10001391 95.99015323 -0.10023534 96.73861237 -0.10046348 C108.48858398 -0.10440477 120.23849332 -0.12184006 131.98844092 -0.145152 C144.08217627 -0.16895013 156.17588049 -0.18133175 168.26963961 -0.18249393 C175.04751456 -0.18340615 181.82530843 -0.18904286 188.60316086 -0.20731354 C194.98736375 -0.22388814 201.37141365 -0.2259044 207.75563049 -0.21717453 C210.08628883 -0.21640908 212.41695571 -0.22068117 214.74759293 -0.23063278 C258.07962913 -0.40465983 296.27158717 14.14096113 327.37026978 44.66778564 C335.82133285 53.25263113 342.72223089 62.77794547 348.81997681 73.14044189 C349.16657349 73.72519287 349.51317017 74.30994385 349.87026978 74.91241455 C362.01010239 95.68527045 368.98307225 119.22610484 368.9604187 143.32046509 C368.96487538 144.81849873 368.96487538 144.81849873 368.9694221 146.34679568 C368.97806505 149.67954963 368.97961363 153.01226748 368.98110962 156.34503174 C368.98574103 158.7406217 368.99076612 161.13621093 368.99615479 163.53179932 C369.00925242 170.03232557 369.01575642 176.53284494 369.02016544 183.03338194 C369.02293631 187.10070264 369.02717527 191.168021 369.03166962 195.23534012 C369.04385836 206.5196003 369.05415726 217.80385861 369.05754471 229.08812523 C369.05776427 229.80934851 369.05798384 230.53057179 369.05821006 231.27365033 C369.05842834 231.99650446 369.05864662 232.7193586 369.05887151 233.46411741 C369.05931496 234.92865396 369.05976152 236.3931905 369.06021118 237.85772705 C369.06043261 238.58417268 369.06065404 239.31061832 369.06088218 240.05907746 C369.06482347 251.80904907 369.08225876 263.55895841 369.1055707 275.308906 C369.12936883 287.40264135 369.14175045 299.49634558 369.14291263 311.5901047 C369.14382485 318.36797965 369.14946156 325.14577352 369.16773224 331.92362595 C369.18430684 338.30782883 369.1863231 344.69187874 369.17759323 351.07609558 C369.17682778 353.40675392 369.18109987 355.7374208 369.19105148 358.06805801 C369.36507853 401.40009422 354.81945758 439.59205226 324.29263306 470.69073486 C315.70778757 479.14179794 306.18247323 486.04269597 295.81997681 492.14044189 C295.23522583 492.48703857 294.65047485 492.83363525 294.04800415 493.19073486 C273.27514825 505.33056748 249.73431386 512.30353734 225.63995361 512.28088379 C224.64126452 512.28385491 223.64257542 512.28682603 222.61362302 512.28988719 C219.28086907 512.29853014 215.94815122 512.30007872 212.61538696 512.30157471 C210.219797 512.30620611 207.82420777 512.31123121 205.42861938 512.31661987 C198.92809313 512.3297175 192.42757376 512.3362215 185.92703676 512.34063053 C181.85971606 512.3434014 177.7923977 512.34764035 173.72507858 512.3521347 C162.4408184 512.36432345 151.15656009 512.37462235 139.87229347 512.3780098 C138.79045855 512.37833915 138.79045855 512.37833915 137.68676838 512.37867515 C136.96391424 512.37889343 136.2410601 512.3791117 135.49630129 512.3793366 C134.03176474 512.37978005 132.5672282 512.38022661 131.10269165 512.38067627 C130.37624602 512.3808977 129.64980038 512.38111913 128.90134124 512.38134727 C117.15136963 512.38528855 105.40146029 512.40272385 93.6515127 512.42603579 C81.55777735 512.44983392 69.46407312 512.46221554 57.370314 512.46337771 C50.59243905 512.46428994 43.81464518 512.46992664 37.03679276 512.48819733 C30.65258987 512.50477193 24.26853996 512.50678819 17.88432312 512.49805832 C15.55366478 512.49729287 13.2229979 512.50156496 10.89236069 512.51151657 C-32.43967552 512.68554362 -70.63163355 498.13992266 -101.73031616 467.61309814 C-110.18137924 459.02825266 -117.08227727 449.50293832 -123.18002319 439.14044189 C-123.52661987 438.55569092 -123.87321655 437.97093994 -124.23031616 437.36846924 C-139.15366328 411.83265263 -143.96888288 384.22270078 -143.82699585 354.93341064 C-143.83379502 352.5269607 -143.84271086 350.12051597 -143.85354614 347.71408081 C-143.87607264 341.2594098 -143.86761464 334.80514453 -143.85165071 328.35046768 C-143.84267249 324.30057544 -143.84447118 320.25073325 -143.84910202 316.20083618 C-143.84986819 315.52315191 -143.85063435 314.84546765 -143.85142373 314.14724749 C-143.85302277 312.7694531 -143.85464384 311.39165874 -143.85628669 310.0138644 C-143.87045789 297.17115175 -143.8542884 284.32861914 -143.82728486 271.48593605 C-143.80495393 260.5272569 -143.80883651 249.56884283 -143.83187866 238.61016846 C-143.85879081 225.80542442 -143.86908541 213.00083715 -143.85381734 200.19606876 C-143.85222502 198.82406174 -143.85065316 197.45205468 -143.84910202 196.08004761 C-143.84833064 195.40544076 -143.84755927 194.73083391 -143.84676451 194.03578442 C-143.84249339 189.33985864 -143.8498857 184.64406472 -143.86149979 179.94815063 C-143.87611257 173.59803788 -143.86562045 167.2484178 -143.8370285 160.89835739 C-143.83050645 158.58998806 -143.83215941 156.2815761 -143.84334183 153.97322464 C-144.02984188 111.50758545 -129.37532516 73.193066 -99.75082397 42.66778564 C-73.70742027 16.77431011 -36.88675524 -0.03468097 0 0 Z " fill="#7110C7" transform="translate(143.18002319335938,-0.14044189453125)"/>
<path d="M0 0 C0.73511307 0.00359528 1.47022614 0.00719055 2.22761536 0.01089478 C2.99829346 0.01074875 3.76897156 0.01060272 4.56300354 0.01045227 C7.12237823 0.01115157 9.68168104 0.01894471 12.24104309 0.02676392 C14.01081299 0.02862804 15.7805834 0.03005197 17.550354 0.03105164 C22.2176505 0.03487728 26.88491607 0.04470796 31.55220032 0.05575562 C36.31110719 0.06596873 41.07001905 0.07054904 45.82893372 0.07559204 C55.17334837 0.08633019 64.51774004 0.10340717 73.86213684 0.12442017 C72.5933492 2.67789754 71.32284183 5.23049492 70.05134583 7.78262329 C69.51705082 8.85857758 69.51705082 8.85857758 68.97196198 9.95626831 C66.14424101 15.62691469 63.10627318 21.14455537 59.92463684 26.62442017 C54.52612827 36.04822445 49.37286473 45.58579095 44.29963684 55.18692017 C42.84536487 57.93830429 41.39105184 60.68966658 39.93635559 63.44082642 C39.58521194 64.10498566 39.2340683 64.7691449 38.87228394 65.45343018 C34.90058494 72.95602687 30.83010129 80.40365499 26.74885559 87.84707642 C24.71592436 91.55541617 22.69979862 95.27233766 20.69416809 98.99551392 C15.32923153 108.95230202 9.90442445 118.86284509 4.29963684 128.68692017 C-0.55265304 137.19638681 -5.14314959 145.81242123 -9.62956238 154.5194397 C-13.0486065 161.12215491 -16.63087448 167.60979006 -20.32536316 174.06192017 C-25.63485268 183.34281405 -30.70458651 192.73496882 -35.70036316 202.18692017 C-36.06435211 202.87551117 -36.42834106 203.56410217 -36.80335999 204.27355957 C-37.16567719 204.95902863 -37.52799438 205.64449768 -37.90129089 206.35073853 C-38.62201657 207.71413225 -39.34280041 209.07749524 -40.06364441 210.44082642 C-40.41476791 211.10495041 -40.76589142 211.7690744 -41.12765503 212.45332336 C-45.09938663 219.95594925 -49.16987893 227.40361891 -53.25114441 234.84707642 C-55.28407564 238.55541617 -57.30020138 242.27233766 -59.30583191 245.99551392 C-65.30543389 257.13095495 -71.38896161 268.20900343 -77.64933777 279.2003479 C-81.21899846 285.46981961 -84.69788226 291.78275643 -88.13786316 298.12442017 C-93.74786316 298.12442017 -99.35786316 298.12442017 -105.13786316 298.12442017 C-113.18934875 283.61933534 -120.89100711 268.95810173 -128.43644714 254.18521118 C-128.97010391 253.14235458 -128.97010391 253.14235458 -129.51454163 252.07843018 C-130.18220477 250.77316992 -130.84834924 249.4671312 -131.51264954 248.16015625 C-132.88364516 245.4797905 -134.2486017 242.96748575 -135.98722839 240.50357056 C-137.13786316 238.12442017 -137.13786316 238.12442017 -136.50968933 235.6522522 C-136.05698669 234.81806763 -135.60428406 233.98388306 -135.13786316 233.12442017 C-134.68709412 232.26058716 -134.23632507 231.39675415 -133.77189636 230.50674438 C-133.24942322 229.57362427 -132.72695007 228.64050415 -132.18864441 227.67910767 C-131.59551453 226.61595337 -131.00238464 225.55279907 -130.39128113 224.45742798 C-129.43052673 222.74571411 -129.43052673 222.74571411 -128.45036316 220.99942017 C-127.77704122 219.79483946 -127.10403233 218.59008372 -126.43132019 217.38516235 C-125.03240464 214.87996027 -123.63214035 212.37551871 -122.23112488 209.87149048 C-119.60279985 205.17060157 -116.99348036 200.4592526 -114.38298035 195.7484436 C-109.19680118 186.39165561 -103.97944132 177.05411165 -98.70036316 167.74942017 C-91.75904486 155.50883885 -84.97313947 143.18382027 -78.19059753 130.85488892 C-74.82310083 124.73405781 -71.44952805 118.61657719 -68.07536316 112.49942017 C-67.74402374 111.89861633 -67.41268433 111.2978125 -67.07130432 110.67880249 C-61.66162208 100.87069816 -56.22666894 91.07681061 -50.78215027 81.28799438 C-46.21681304 73.07625034 -41.67320005 64.85275041 -37.13786316 56.62442017 C-5.92793523 0.01223391 -5.92793523 0.01223391 0 0 Z " fill="#FEFDFE" transform="translate(353.1378631591797,106.87557983398438)"/>
<path d="M0 0 C26.4 0 52.8 0 80 0 C84.95 9.405 84.95 9.405 90 19 C92.08397237 22.74437312 94.17667952 26.47381513 96.3125 30.1875 C100.8683747 38.1781489 105.32230427 46.21610893 109.6875 54.3125 C113.38253084 61.16526149 117.08671256 68.01076627 120.875 74.8125 C121.25962402 75.5031958 121.64424805 76.1938916 122.04052734 76.90551758 C123.9608795 80.35017341 125.88437316 83.79307074 127.80810547 87.23583984 C129.47727212 90.22357684 131.14406492 93.21263068 132.80987549 96.20223999 C133.78351215 97.94802321 134.75963817 99.69241736 135.73583984 101.43676758 C136.94608818 103.60871682 138.14174124 105.78887769 139.32104492 107.9777832 C140.93751153 110.98122223 140.93751153 110.98122223 142.7512207 113.63745117 C144.31547119 116.14785095 145.380246 118.10514536 146 121 C144.98404887 125.25809309 142.87658616 128.62952633 140.5625 132.3125 C139.95011475 133.35865479 139.33772949 134.40480957 138.70678711 135.48266602 C137.44186729 137.63836066 136.16057212 139.78452816 134.86328125 141.92089844 C132.66911954 145.54678516 130.57537286 149.2224468 128.4909668 152.91210938 C127.05465061 155.45137695 125.60134558 157.98025771 124.14453125 160.5078125 C118.33575888 170.61833789 112.68214805 180.81800634 107 191 C106.34 191 105.68 191 105 191 C104.64397705 190.33282959 104.2879541 189.66565918 103.92114258 188.97827148 C97.031576 176.08388517 90.06418247 163.25219529 82.82739258 150.54858398 C78.96174426 143.74609641 75.20763759 136.88974382 71.5 130 C66.77466609 121.22397535 61.93721816 112.52056138 57.015625 103.85327148 C47.9442338 87.87118378 39.02789582 71.80397969 30.3125 55.625 C24.8147018 45.42296085 19.12153286 35.3441243 13.32958984 25.30664062 C11.37653454 21.91838015 9.43806958 18.5218466 7.5 15.125 C6.9121875 14.09632812 6.324375 13.06765625 5.71875 12.0078125 C5.1515625 11.01523438 4.584375 10.02265625 4 9 C3.63519531 8.38479492 3.27039063 7.76958984 2.89453125 7.13574219 C0 2.2125 0 2.2125 0 0 Z " fill="#FEFDFE" transform="translate(85,107)"/>
</svg>
